<svg width="19" height="19" xmlns="http://www.w3.org/2000/svg" xmlns:xlink="http://www.w3.org/1999/xlink"><defs><path d="M8.573 8.677l4.95 7.07 2.121-2.12-7.07-4.95zm0 0l-7.07-4.95 2.12-2.121 4.95 7.07zm0 0l-4.95 7.07-2.12-2.12 7.07-4.95zm7.08-5.135l-2.121-2.121L8.5 8.5l7.153-4.958zM8.5 8.5L7.01 17h3L8.5 8.5zm0 0l8.536 1.65v-3L8.5 8.5zm0 0L7 0h3L8.5 8.5zm0 0L0 10V7l8.5 1.5z" id="a"/></defs><g transform="translate(-3 -3)" fill="none" fill-rule="evenodd"><circle stroke="#FFF" fill="#333" cx="12.5" cy="12.5" r="9"/><circle stroke="#AA212E" cx="12.5" cy="12.5" r="5"/><path d="M12.5 12.5L11 21h3l-1.5-8.5zm0 0L11 4h3l-1.5 8.5zm0 0L4 14v-3l8.5 1.5zm0 0L21 14v-3l-8.5 1.5z" fill="#D5BFAF"/><path d="M12.61 12.728l-.037-.051.049.034 4.877-6.968 2.122 2.121-6.962 4.873 6.985 4.89-2.121 2.12-4.893-6.99-.08.057.06-.086zm-.037-.051l-7.07-4.95 2.12-2.121 4.95 7.07zm0 0l-4.95 7.07-2.12-2.12 7.07-4.95z" fill="#D5BFAF"/><circle stroke="#AA212E" fill="#AA212E" cx="12.5" cy="12.5" r=".5"/><g transform="translate(4 4)"><mask id="b" fill="#fff"><use xlink:href="#a"/></mask><circle stroke="#07804A" mask="url(#b)" cx="8.5" cy="8.5" r="5"/></g><circle stroke="#333" cx="12.5" cy="12.5" r="8"/></g></svg>