<svg width="19" height="19" xmlns="http://www.w3.org/2000/svg"><g transform="translate(-3 -3)" fill="none" fill-rule="evenodd"><circle stroke="#888" cx="12.5" cy="12.5" r="9"/><circle stroke="#FFF" opacity=".1" cx="12.5" cy="12.5" r="5"/><path d="M12.5 12.5L11 21h3l-1.5-8.5zm0 0L11 4h3l-1.5 8.5zm0 0L4 14v-3l8.5 1.5zm0 0L21 14v-3l-8.5 1.5z" fill="#FFF" opacity=".12"/><path d="M12.573 12.677l4.95 7.07 2.121-2.12-7.07-4.95zm0 0l-7.07-4.95 2.12-2.121 4.95 7.07zm0 0l-4.95 7.07-2.12-2.12 7.07-4.95zm-.028-.069l7.071-4.95-2.121-2.121-4.95 7.071z" fill="#FFF" opacity=".12"/><circle stroke-opacity=".12" stroke="#FFF" cx="12.5" cy="12.5" r=".5"/></g></svg>