<svg width="19" height="19" xmlns="http://www.w3.org/2000/svg"><g fill="none" fill-rule="evenodd"><path d="M.308 9.5L9.5.308 18.692 9.5 9.5 18.692z"/><path d="M3.306 12.499A3.498 3.498 0 0 0 5 9.5a3.498 3.498 0 0 0-1.694-2.999L.308 9.5l2.998 2.999zM13.992 9.5a3.5 3.5 0 0 1 1.694-2.999L18.684 9.5l-2.998 2.999H16c-1.015-.613-2.01-1.727-2.01-2.999zM9.488 5.05c-1.272 0-2.161-.44-2.774-1.455l2.774-3 2.77 3c-.613 1.016-1.497 1.455-2.77 1.455zm-.002 8.92c-1.272 0-2.161.439-2.774 1.454l2.774 3 2.77-3c-.613-1.015-1.498-1.455-2.77-1.455z" fill="#FFF" opacity=".1"/><path stroke="#888" d="M.5 9.5l9-9.192 9 9.192-9 9.192z"/></g></svg>