<svg width="23" height="13" xmlns="http://www.w3.org/2000/svg" xmlns:xlink="http://www.w3.org/1999/xlink"><defs><circle id="a" cx="11.5" cy="6.5" r="1.5"/><mask id="d" maskContentUnits="userSpaceOnUse" maskUnits="objectBoundingBox" x="-1" y="-1" width="5" height="5"><path fill="#fff" d="M9 4h5v5H9z"/><use xlink:href="#a"/></mask><path d="M.5 3l2.377.04S6 3.04 6 6.5 2.964 9.942 2.964 9.942L.5 10" id="b"/><mask id="e" maskContentUnits="userSpaceOnUse" maskUnits="objectBoundingBox" x="0" y="0" width="5.5" height="7" fill="#fff"><use xlink:href="#b"/></mask><path d="M17 3l2.377.04s3.123 0 3.123 3.46-3.036 3.442-3.036 3.442L17 10" id="c"/><mask id="f" maskContentUnits="userSpaceOnUse" maskUnits="objectBoundingBox" x="0" y="0" width="5.5" height="7" fill="#fff"><use xlink:href="#c"/></mask></defs><g fill="none" fill-rule="evenodd"><path stroke="#FFF" stroke-linecap="square" fill="#C18C00" d="M.5.5h22v12H.5z"/><path fill="#FFF" opacity=".8" d="M11 1h1.001v4H11zm0 7h1.001v4H11z"/><use stroke="#FFF" mask="url(#d)" stroke-width="2" opacity=".9" xlink:href="#a"/><use stroke="#FFF" mask="url(#e)" stroke-width="2" opacity=".8" xlink:href="#b"/><use stroke="#FFF" mask="url(#f)" stroke-width="2" opacity=".8" transform="matrix(-1 0 0 1 39.5 0)" xlink:href="#c"/></g></svg>