<svg width="23" height="13" xmlns="http://www.w3.org/2000/svg" xmlns:xlink="http://www.w3.org/1999/xlink"><defs><path id="a" d="M1.5 4.25h2v4.5h-2"/><mask id="e" maskContentUnits="userSpaceOnUse" maskUnits="objectBoundingBox" x="0" y="0" width="2" height="4.5" fill="#fff"><use xlink:href="#a"/></mask><path id="b" d="M20.5 8.75h-2v-4.5h2"/><mask id="f" maskContentUnits="userSpaceOnUse" maskUnits="objectBoundingBox" x="0" y="0" width="2" height="4.5" fill="#fff"><use xlink:href="#b"/></mask><path id="c" d="M9.75 4.25h2.5v4.5h-2.5z"/><mask id="g" maskContentUnits="userSpaceOnUse" maskUnits="objectBoundingBox" x="0" y="0" width="2.5" height="4.5" fill="#fff"><use xlink:href="#c"/></mask><path d="M11 13c6.13 0 11-2.91 11-6.5S17.13 0 11 0 0 2.91 0 6.5 4.87 13 11 13z" id="d"/><mask id="h" maskContentUnits="userSpaceOnUse" maskUnits="objectBoundingBox" x="0" y="0" width="22" height="13" fill="#fff"><use xlink:href="#d"/></mask><mask id="i" maskContentUnits="userSpaceOnUse" maskUnits="objectBoundingBox" x="0" y="0" width="22" height="13" fill="#fff"><use xlink:href="#d"/></mask></defs><g transform="translate(1)" fill="none" fill-rule="evenodd"><path d="M16.567 1.5C14.947 2.747 14 4.55 14 6.487c0 1.951.96 3.766 2.6 5.013l.4-.36c-1.517-1.155-2.409-2.838-2.409-4.653 0-1.801.88-3.474 2.378-4.629l-.402-.358zm-11.134 0C7.053 2.747 8 4.55 8 6.487c0 1.951-.96 3.766-2.6 5.013l-.4-.36c1.517-1.155 2.409-2.838 2.409-4.653 0-1.801-.88-3.474-2.378-4.629l.402-.358z" fill="#888"/><use stroke="#888" mask="url(#e)" opacity=".88" xlink:href="#a"/><use stroke="#888" mask="url(#f)" opacity=".88" xlink:href="#b"/><use stroke="#888" mask="url(#g)" xlink:href="#c"/><g stroke="#888" mask="url(#h)" stroke-width="2"><use mask="url(#i)" xlink:href="#d"/></g></g></svg>